<svg width="19" height="15" viewBox="0 0 19 15" fill="none" xmlns="http://www.w3.org/2000/svg">
<g clip-path="url(#clip0_19_792)">
<path d="M16.7659 3.6559L15.6255 2.31424C15.4039 2.04271 15.0676 1.875 14.6819 1.875H4.83639C4.45077 1.875 4.11438 2.04271 3.88465 2.31424L2.75241 3.6559C2.51448 3.92743 2.375 4.28681 2.375 4.67014V14.6528C2.375 15.5312 3.11342 16.25 4.01592 16.25H15.5024C16.4049 16.25 17.1433 15.5312 17.1433 14.6528V4.67014C17.1433 4.28681 17.0038 3.92743 16.7659 3.6559ZM9.75916 13.4549L5.24662 9.0625H8.11824V7.46528H11.4001V9.0625H14.2717L9.75916 13.4549ZM4.11438 3.47222L4.77895 2.67361H14.6245L15.3957 3.47222H4.11438Z" fill="#FF822D"/>
</g>
<defs>
<clipPath id="clip0_19_792">
<rect width="19" height="15" fill="white"/>
</clipPath>
</defs>
</svg>
