<svg width="22" height="20" viewBox="0 0 22 20" fill="none" xmlns="http://www.w3.org/2000/svg">
<path d="M14.9714 13.0991H14.199L13.9252 12.8328C14.8834 11.7084 15.4602 10.2487 15.4602 8.66081C15.4602 5.12007 12.6151 2.25 9.10512 2.25C5.59514 2.25 2.75 5.12007 2.75 8.66081C2.75 12.2015 5.59514 15.0716 9.10512 15.0716C10.6792 15.0716 12.1262 14.4897 13.2408 13.5232L13.5048 13.7993V14.5785L18.3934 19.5L19.8502 18.0304L14.9714 13.0991ZM9.10512 13.0991C6.67062 13.0991 4.70542 11.1166 4.70542 8.66081C4.70542 6.20497 6.67062 4.22256 9.10512 4.22256C11.5396 4.22256 13.5048 6.20497 13.5048 8.66081C13.5048 11.1166 11.5396 13.0991 9.10512 13.0991Z" fill="black"/>
</svg>
